<svg width="50" height="48" viewBox="0 0 50 48" fill="none" xmlns="http://www.w3.org/2000/svg">
<path d="M12.3419 1.39008C13.6879 1.03508 15.3514 0.544576 16.0389 0.300576C16.7264 0.0570756 19.0889 -0.0634227 21.2889 0.0335773C23.4889 0.130577 26.6389 0.416594 28.2889 0.669594C29.9389 0.922594 31.7389 1.29759 32.2889 1.50309C32.8389 1.70859 33.7569 2.09908 34.3294 2.37058C34.9014 2.64208 35.7979 3.57808 36.3219 4.45008C36.8459 5.32258 37.4424 7.49858 37.6474 9.28608C37.8529 11.0736 38.1574 13.5721 38.3244 14.8381C38.5274 16.3776 38.3544 17.9516 37.8024 19.5881C37.3479 20.9346 36.6289 22.5716 36.2034 23.2261C35.7784 23.8806 34.2179 25.6291 32.7349 27.1116C31.0359 28.8111 29.2824 31.3126 27.9919 33.8796C26.8654 36.1196 25.5094 39.3141 24.9774 40.9786C24.4459 42.6431 23.6404 44.5741 23.1874 45.2706C22.7344 45.9666 22.0094 46.8101 21.5764 47.1451C21.1434 47.4801 20.4174 47.7616 19.9639 47.7701C19.5099 47.7791 18.3134 46.9606 17.3044 45.9516L15.4704 44.1176L15.6899 40.0766C15.8109 37.8546 16.1804 35.0236 16.5109 33.7861C16.8414 32.5486 17.1514 30.9736 17.2004 30.2861C17.2869 29.0636 17.2169 29.0381 14.0389 29.1236C12.2514 29.1711 9.82938 29.3641 8.65688 29.5516C7.34038 29.7621 5.65638 29.6361 4.25288 29.2216C3.00338 28.8526 1.61488 28.1466 1.16788 27.6521C0.415377 26.8206 0.431875 26.5306 1.39438 23.7461C2.22638 21.3396 2.32688 20.4551 1.89938 19.3216C1.48338 18.2196 1.55787 17.2901 2.23637 15.1341C2.71537 13.6096 3.87988 11.0806 4.82338 9.51359C5.76688 7.94709 6.53888 6.37708 6.53888 6.02558C6.53888 5.67358 7.29388 4.63207 8.21688 3.71107C9.25838 2.67157 10.8229 1.79108 12.3419 1.39008Z" fill="#2C2C2D"/>
<path d="M39.6074 5.58607C39.1894 3.77657 39.1874 2.95957 39.6014 2.46107C39.9289 2.06607 41.1559 1.78608 42.5579 1.78608C44.6014 1.78608 45.1894 2.02558 46.5484 3.41108C47.4249 4.30508 48.4529 5.93608 48.8329 7.03608C49.2129 8.13608 49.5239 10.7236 49.5239 12.7861C49.5239 14.8486 49.2149 17.4241 48.8369 18.5101C48.4589 19.5956 47.6514 21.0016 47.0419 21.6351C46.1914 22.5186 45.3834 22.7861 43.5639 22.7861C41.8274 22.7861 40.9514 22.5181 40.2869 21.7841C39.4904 20.9041 39.4554 20.5541 39.9984 18.9091C40.3859 17.7346 40.5339 15.3581 40.3954 12.5361C40.2739 10.0611 39.9194 6.93357 39.6074 5.58607Z" fill="#2C2C2D"/>
</svg>
