<svg width="37" height="53" viewBox="0 0 37 53" fill="none" xmlns="http://www.w3.org/2000/svg">
<path d="M20.9525 5.57754C21.3105 4.35454 22.357 2.59899 23.2785 1.67599C24.844 0.10749 25.1705 -0.00197399 28.2785 2.60129e-05C30.694 0.00102601 32.0415 0.268992 33.204 0.977992C34.0845 1.51449 35.1535 2.62751 35.579 3.45101C36.0825 4.42401 36.3535 6.30203 36.3535 8.81253C36.3535 10.938 36.145 13.368 35.89 14.2125C35.635 15.057 34.693 18.1105 33.797 20.998C32.901 23.8855 31.648 27.307 31.013 28.601C30.3785 29.895 29.3655 31.414 28.762 31.976C28.1585 32.538 27.0885 32.991 26.384 32.982C25.68 32.9735 24.749 32.692 24.316 32.357C23.883 32.022 23.1 31.09 22.576 30.2855C22.052 29.481 21.427 27.456 21.1865 25.7855C20.946 24.115 20.6485 19.385 20.5255 15.2745C20.3675 10.0115 20.494 7.14354 20.9525 5.57754Z" fill="#2C2C2D"/>
<path d="M2.08098 11.863C2.37798 11.457 3.40447 10.647 4.36247 10.063C5.31997 9.47951 6.89097 9.00149 7.85347 9.00149C8.81597 9.00149 10.3205 9.43899 11.1965 9.97299C12.073 10.5075 13.0685 11.463 13.409 12.096C13.75 12.7295 14.2465 14.148 14.5125 15.248C14.7785 16.348 14.9715 18.4855 14.9415 19.998C14.9115 21.5105 14.709 25.223 14.4915 28.248C14.195 32.373 13.826 34.2545 13.015 35.7745C12.42 36.889 11.347 38.0685 10.63 38.395C9.61948 38.8555 9.10847 38.8535 8.36097 38.3865C7.82997 38.055 6.84098 36.7635 6.16298 35.516C5.48448 34.2685 4.12497 30.8415 3.14147 27.9C2.15797 24.9585 1.35347 22.0495 1.35347 21.4355C1.35347 20.8215 1.09447 19.603 0.777974 18.7275C0.330474 17.49 0.351476 16.6315 0.871976 14.8685C1.23998 13.6215 1.78448 12.269 2.08098 11.863Z" fill="#2C2C2D"/>
<path d="M19.41 40.877C20.0425 39.5265 21.1325 38.1105 21.832 37.73C22.5315 37.3495 23.846 37.029 24.7535 37.018C25.6605 37.007 27.077 37.3465 27.9005 37.7725C28.724 38.198 29.837 39.267 30.3735 40.1475C30.9105 41.0275 31.35 42.5355 31.35 43.498C31.35 44.4605 30.9105 45.9685 30.3735 46.8485C29.837 47.729 28.724 48.798 27.9005 49.2235C27.077 49.6495 25.638 49.998 24.7025 49.998C23.7565 49.998 22.275 49.4985 21.3655 48.873C20.3005 48.141 19.473 46.977 18.9945 45.5405C18.3015 43.4575 18.325 43.194 19.41 40.877Z" fill="#2C2C2D"/>
<path d="M5.35347 47.498C5.35347 45.983 5.71847 45.233 7.15347 43.798C8.52447 42.427 9.36448 41.998 10.6785 41.998C11.627 41.998 13.023 42.3185 13.781 42.7105C14.539 43.1025 15.4275 44.013 15.756 44.734C16.0845 45.455 16.3535 46.7885 16.3535 47.6975C16.3535 48.6065 15.8395 50.1145 15.2115 51.049C14.1975 52.558 13.7865 52.7645 11.535 52.8965C9.19747 53.0335 8.85898 52.9035 7.17698 51.2215C5.71898 49.7635 5.35347 49.0175 5.35347 47.498Z" fill="#2C2C2D"/>
</svg>
