<svg width="54" height="54" viewBox="0 0 54 54" fill="none" xmlns="http://www.w3.org/2000/svg">
<path d="M15.7037 3.70398C15.8332 3.12998 16.4102 2.06148 16.9862 1.32898C17.8582 0.220481 18.4247 0.000478593 20.3722 0.0139786C21.6582 0.0224786 23.0652 0.303979 23.4982 0.638979C23.9312 0.973979 24.6947 1.876 25.1942 2.6435C25.6937 3.411 26.3357 4.986 26.6207 6.1435C26.9052 7.30099 27.1387 11.2855 27.1387 14.998C27.1387 18.7105 26.8992 22.7285 26.6067 23.927C26.3142 25.1255 25.6332 26.7005 25.0937 27.427C24.4482 28.2955 23.5422 28.804 22.4497 28.911C21.5357 29.001 20.2927 28.8095 19.6877 28.486C19.0832 28.162 18.1097 27.0455 17.5247 26.0045C16.9392 24.9635 16.4607 23.625 16.4607 23.03C16.4607 22.435 16.1102 21.2705 15.6817 20.442C15.1157 19.3475 14.6037 18.9785 13.8067 19.092C12.8477 19.2285 12.6697 19.654 12.3847 22.498C12.2052 24.2855 11.8957 26.3755 11.6977 27.142C11.4912 27.9395 10.7317 28.8495 9.92367 29.267C9.14617 29.669 7.74667 29.998 6.81317 29.998C5.82217 29.998 4.79617 29.634 4.34867 29.123C3.92667 28.6415 3.17867 27.4605 2.68667 26.498C2.19467 25.5355 1.56967 23.848 1.29767 22.748C1.02617 21.648 0.715172 17.4435 0.607672 13.405C0.419172 6.36797 0.463173 5.95946 1.66017 3.59796C2.64217 1.65946 3.23467 1.068 4.43467 0.828004C5.27417 0.660504 6.64717 0.660504 7.48667 0.828004C8.68117 1.067 9.27817 1.65801 10.2367 3.54901C10.9097 4.87751 11.4607 6.72499 11.4607 7.65399C11.4607 8.68649 11.8352 9.68198 12.4237 10.2145C12.9532 10.6935 13.7967 11.0075 14.2987 10.912C15.0422 10.7705 15.2342 10.1855 15.3392 7.74298C15.4102 6.09598 15.5742 4.27848 15.7037 3.70398Z" fill="#2C2C2D"/>
<path d="M19.4607 35.9885C19.4607 34.1115 19.7277 33.367 20.7787 32.316C21.5587 31.5365 22.6542 30.998 23.4607 30.998C24.2532 30.998 25.3547 31.528 26.0897 32.2635C26.7857 32.959 27.5112 34.3655 27.7022 35.3885C27.8932 36.411 28.1587 39.2445 28.2922 41.6845C28.4507 44.584 28.3057 46.8985 27.8727 48.366C27.5087 49.6005 26.6737 51.148 26.0177 51.8045C25.3612 52.461 24.4287 52.998 23.9452 52.998C23.4612 52.998 22.5522 52.4645 21.9247 51.813C21.2977 51.161 20.4052 49.417 19.9417 47.938C19.4542 46.3805 18.8072 45.248 18.4052 45.248C17.9547 45.248 17.6177 46.0385 17.4457 47.498C17.2997 48.7355 16.7677 50.4415 16.2622 51.289C15.7572 52.1365 14.9172 53.097 14.3947 53.423C13.6462 53.8905 13.1487 53.8625 12.0417 53.29C11.2697 52.8905 10.4137 52.268 10.1392 51.906C9.86517 51.544 9.38467 50.348 9.07117 49.248C8.75817 48.148 8.35167 46.4605 8.16817 45.498C7.98517 44.5355 7.83917 42.2855 7.84417 40.498C7.84917 38.7105 8.01317 36.4185 8.20817 35.4045C8.40317 34.3905 8.96767 33.194 9.46267 32.746C10.0497 32.215 11.0257 31.9865 12.2707 32.09C13.7952 32.216 14.4077 32.5895 15.3197 33.947C16.0087 34.9725 16.4607 36.3975 16.4607 37.5425C16.4607 38.5855 16.6997 39.587 16.9922 39.7675C17.2847 39.948 17.9597 39.7015 18.4922 39.2195C19.1892 38.589 19.4607 37.6825 19.4607 35.9885Z" fill="#2C2C2D"/>
<path fill-rule="evenodd" clip-rule="evenodd" d="M38.4872 1.05249C37.5392 1.63049 36.1142 2.79849 35.3197 3.64899C34.5257 4.49899 33.1882 6.5565 32.3477 8.2215C31.5072 9.886 30.5902 11.923 30.3102 12.748C30.0302 13.573 29.6182 16.3855 29.3942 18.998C29.1707 21.6105 28.9257 24.648 28.8492 25.748L28.7107 27.748L30.7107 27.894C32.4457 28.0205 33.0062 27.772 34.9407 26.019C36.9892 24.1625 37.3992 23.998 39.9772 23.998C42.6547 23.998 42.9067 24.113 45.4607 26.498C47.2977 28.2135 48.5592 28.998 49.4812 28.998C50.2657 28.998 51.3722 28.45 52.1427 27.68C53.1322 26.6905 53.4607 25.8575 53.4607 24.3405C53.4607 23.2285 53.2552 21.628 53.0042 20.7835C52.7527 19.939 52.0587 17.7855 51.4617 15.998C50.8652 14.2105 50.0402 11.848 49.6292 10.748C49.2177 9.64799 48.1032 7.26597 47.1517 5.45447C45.8822 3.03597 44.9107 1.87297 43.4982 1.07947C42.4402 0.484469 41.2677 -0.000998458 40.8927 1.54214e-06C40.5177 0.00100154 39.4352 0.474492 38.4872 1.05249ZM41.7757 16.873C41.6102 16.2545 41.4712 15.0165 41.4677 14.123C41.4637 13.2295 41.2492 12.498 40.9902 12.498C40.7312 12.498 40.3397 12.7795 40.1192 13.123C39.8992 13.467 39.4482 14.5205 39.1172 15.465C38.7862 16.4095 38.6287 17.3655 38.7677 17.59C38.9062 17.8145 39.7077 17.998 40.5487 17.998C41.8902 17.998 42.0402 17.86 41.7757 16.873Z" fill="#2C2C2D"/>
<path fill-rule="evenodd" clip-rule="evenodd" d="M37.7102 30.917C36.8847 31.4205 35.3657 33.253 34.3352 34.99C33.3042 36.7265 32.4607 38.35 32.4607 38.5975C32.4607 38.845 32.0732 39.7675 31.5992 40.648C31.1257 41.528 30.6027 43.9355 30.4382 45.998C30.2732 48.0605 29.9677 50.1265 29.7592 50.589C29.4737 51.2215 29.7712 51.633 30.9562 52.2455C32.2702 52.9255 32.6707 52.9515 33.3627 52.4045C33.8192 52.0435 34.6927 51.262 35.3042 50.6685C36.2777 49.7225 36.8062 49.622 39.5632 49.8565C42.2622 50.0855 42.8762 50.3285 43.8717 51.561C44.6492 52.523 45.4942 52.998 46.4287 52.998C47.2702 52.998 48.3482 52.4745 49.1427 51.68C49.8677 50.955 50.4607 50.127 50.4607 49.8405C50.4607 49.5535 50.2562 48.628 50.0057 47.7835C49.7557 46.939 49.2937 45.348 48.9787 44.248C48.6637 43.148 47.9882 41.2355 47.4777 39.998C46.9667 38.7605 46.2972 37.0655 45.9892 36.232C45.6812 35.398 44.9302 34.135 44.3202 33.425C43.7097 32.7155 42.4232 31.6545 41.4607 31.068C40.4982 30.4815 39.5982 30.0015 39.4607 30.0015C39.3232 30.0015 38.5352 30.4135 37.7102 30.917ZM40.2877 44.385C40.7697 43.9035 40.9052 43.2015 40.6857 42.326C40.5022 41.5955 40.1597 40.998 39.9242 40.998C39.6887 40.998 39.2632 41.433 38.9782 41.965C38.6937 42.497 38.4607 43.2715 38.4607 43.6855C38.4607 44.1 38.7072 44.5915 39.0087 44.7775C39.3102 44.964 39.8857 44.7875 40.2877 44.385Z" fill="#2C2C2D"/>
</svg>
