<svg width="50" height="48" viewBox="0 0 50 48" fill="none" xmlns="http://www.w3.org/2000/svg">
<path d="M26.5759 4.339C27.2894 2.915 28.2194 1.3565 28.6434 0.875C29.0674 0.3935 29.7279 0 30.1114 0C30.4949 0 31.4409 0.327001 32.2134 0.726501C32.9859 1.126 33.8919 2.114 34.2269 2.9225C34.6124 3.853 34.7534 5.9245 34.6114 8.571C34.4884 10.8695 34.1439 13.65 33.8459 14.75C33.5474 15.85 33.1654 17.3125 32.9964 18L32.6894 19.25L40.2584 19.0785C47.0264 18.925 47.9339 19.0035 48.8344 19.8185C49.6319 20.54 49.7744 21.096 49.5194 22.49C49.3424 23.458 49.0169 26.1625 48.7969 28.5C48.5764 30.8375 48.2189 33.285 48.0024 33.939C47.7859 34.593 46.8419 36.393 45.9049 37.939C44.9679 39.485 44.0844 41.3125 43.9414 42C43.7984 42.6875 43.4179 43.6045 43.0954 44.0375C42.7729 44.4705 41.8629 45.246 41.0729 45.76C40.2829 46.274 38.4829 46.9075 37.0729 47.167C35.6629 47.4265 32.1464 47.634 29.2589 47.6275C26.3714 47.6215 22.6589 47.4155 21.0089 47.17C19.3589 46.924 17.3079 46.305 16.4519 45.7935C15.5954 45.2825 14.4704 44.1635 13.9519 43.307C13.3289 42.279 12.8804 40.2215 12.6314 37.25C12.4234 34.775 12.2359 32.1875 12.2149 31.5C12.1934 30.8125 12.3634 29.455 12.5924 28.4835C12.8214 27.512 13.6534 25.712 14.4409 24.4835C15.2284 23.255 16.6909 21.6655 17.6909 20.951C18.6909 20.2365 20.2759 18.3665 21.2129 16.796C22.1504 15.225 23.4484 12.362 24.0979 10.434C24.7474 8.5055 25.8624 5.7625 26.5759 4.339Z" fill="#2C2C2D"/>
<path d="M1.4649 30.25C1.8449 29.15 2.8729 27.5185 3.7494 26.625C4.9879 25.3625 5.7629 25 7.2239 25C8.4529 25 9.4094 25.3375 9.9864 25.975C10.6839 26.7455 10.7944 27.401 10.5144 29.1C10.3194 30.2825 10.1469 32.9375 10.1309 35C10.1149 37.0625 10.3519 39.65 10.6579 40.75C10.9639 41.85 11.3594 43.351 11.5374 44.086C11.8119 45.221 11.6314 45.5405 10.3344 46.211C9.4954 46.645 8.2524 47 7.5734 47C6.7804 47 5.5629 46.221 4.1734 44.824C2.9174 43.5615 1.7464 41.781 1.3839 40.582C1.0404 39.4455 0.7624 37.106 0.7664 35.383C0.7704 33.66 1.0849 31.35 1.4649 30.25Z" fill="#2C2C2D"/>
</svg>
