<svg width="30" height="53" viewBox="0 0 30 53" fill="none" xmlns="http://www.w3.org/2000/svg">
<path fill-rule="evenodd" clip-rule="evenodd" d="M7.42451 1.48615C5.95101 2.29865 4.29752 3.47562 3.75002 4.10212C3.20252 4.72862 2.21402 6.30267 1.55402 7.59967C0.657516 9.36067 0.353516 10.7682 0.353516 13.1562C0.353516 15.9457 0.522016 16.5237 1.67152 17.6732C2.58102 18.5822 3.51901 18.9912 4.69651 18.9912C5.63501 18.9912 7.02302 18.6706 7.78102 18.2786C8.53902 17.8866 9.42752 16.9762 9.75602 16.2552C10.0845 15.5342 10.3535 14.4086 10.3535 13.7541C10.3535 13.0606 10.909 12.1267 11.6845 11.5167C12.417 10.9407 13.5175 10.3436 14.131 10.1896C14.744 10.0356 15.945 10.2712 16.7995 10.7132C18.1365 11.4047 18.3535 11.7902 18.3535 13.4732C18.3535 15.2682 17.9805 15.8052 13.829 19.9892C11.34 22.4967 8.86602 25.2666 8.33052 26.1446C7.79552 27.0226 7.35651 28.4982 7.35551 29.4232C7.35451 30.3482 7.83202 31.9566 8.41751 32.9976C9.00251 34.0386 9.97201 35.1532 10.572 35.4742C11.172 35.7952 12.6545 35.9866 13.8665 35.8996C15.733 35.7656 16.246 35.4807 17.212 34.0422C17.84 33.1077 18.3535 31.7132 18.3535 30.9427C18.3535 29.9082 18.842 29.1757 20.2215 28.1417C21.249 27.3712 22.775 26.0662 23.6125 25.2412C24.4495 24.4162 25.8275 22.7287 26.6745 21.4912C27.521 20.2537 28.3685 18.4537 28.5575 17.4912C28.7465 16.5287 29.0235 15.0442 29.173 14.1927C29.3235 13.3352 29.076 11.5502 28.618 10.1927C28.163 8.84419 27.428 7.17865 26.984 6.49115C26.54 5.80365 25.4985 4.60412 24.669 3.82612C23.84 3.04762 22.0875 1.86662 20.7745 1.20112C18.8135 0.207115 17.6465 -0.00731251 14.245 0.000187487C10.6055 0.00818749 9.77901 0.188149 7.42451 1.48615ZM9.79702 41.1166C9.07802 41.7351 8.01002 43.0287 7.42352 43.9912C6.83702 44.9537 6.35702 46.3037 6.35702 46.9912C6.35702 47.6787 6.79651 48.9616 7.33352 49.8416C7.87002 50.7221 8.98302 51.7911 9.80651 52.2166C10.63 52.6426 12.08 52.9912 13.0285 52.9912C14.33 52.9912 15.179 52.5656 16.4855 51.2591C17.438 50.3066 18.5125 48.8142 18.874 47.9422C19.4615 46.5237 19.4125 46.1347 18.4125 44.2497C17.74 42.9822 16.532 41.7136 15.381 41.0666C14.3285 40.4751 12.9355 39.9916 12.2855 39.9916C11.6355 39.9921 10.5155 40.4981 9.79702 41.1166Z" fill="#2C2C2D"/>
</svg>
